HIERARCHY
ROOT Hips
{
	OFFSET -0.001795 -0.223333 0.028219
	CHANNELS 6 Xposition Yposition Zposition Zrotation Yrotation Xrotation 
	JOINT LeftUpLeg
	{
		OFFSET 0.069520 -0.091406 -0.006815
		CHANNELS 3 Zrotation Yrotation Xrotation
		JOINT LeftLeg
		{
			OFFSET 0.034277 -0.375199 -0.004496
			CHANNELS 3 Zrotation Yrotation Xrotation
			JOINT LeftFoot
			{
				OFFSET -0.013596 -0.397961 -0.043693
				CHANNELS 3 Zrotation Yrotation Xrotation
				JOINT LeftToe
				{
					OFFSET 0.026358 -0.055791 0.119288
					CHANNELS 3 Zrotation Yrotation Xrotation
					End Site
					{
						OFFSET 0.000000 0.000000 0.000000
					}
				}
			}
		}
	}
	JOINT RightUpLeg
	{
		OFFSET -0.067670 -0.090522 -0.004320
		CHANNELS 3 Zrotation Yrotation Xrotation
		JOINT RightLeg
		{
			OFFSET -0.038290 -0.382569 -0.008850
			CHANNELS 3 Zrotation Yrotation Xrotation
			JOINT RightFoot
			{
				OFFSET 0.015774 -0.398415 -0.042312
				CHANNELS 3 Zrotation Yrotation Xrotation
				JOINT RightToe
				{
					OFFSET -0.025372 -0.048144 0.123348
					CHANNELS 3 Zrotation Yrotation Xrotation
					End Site
					{
						OFFSET 0.000000 0.000000 0.000000
					}
				}
			}
		}
	}
	JOINT Spine
	{
		OFFSET -0.002533 0.108963 -0.026696
		CHANNELS 3 Zrotation Yrotation Xrotation
		JOINT Spine1
		{
			OFFSET 0.005487 0.135180 0.001092
			CHANNELS 3 Zrotation Yrotation Xrotation
			JOINT Spine2
			{
				OFFSET 0.001457 0.052922 0.025425
				CHANNELS 3 Zrotation Yrotation Xrotation
				JOINT Neck
				{
					OFFSET -0.002778 0.213870 -0.042857
					CHANNELS 3 Zrotation Yrotation Xrotation
					JOINT Head
					{
						OFFSET 0.005152 0.064970 0.051349
						CHANNELS 3 Zrotation Yrotation Xrotation
						End Site
						{
							OFFSET 0.000000 0.000000 0.000000
						}
					}
				}
				JOINT LeftShoulder
				{
					OFFSET 0.078845 0.121749 -0.034090
					CHANNELS 3 Zrotation Yrotation Xrotation
					JOINT LeftArm
					{
						OFFSET 0.090977 0.030469 -0.008868
						CHANNELS 3 Zrotation Yrotation Xrotation
						JOINT LeftForeArm
						{
							OFFSET 0.259612 -0.012772 -0.027456
							CHANNELS 3 Zrotation Yrotation Xrotation
							JOINT LeftHand
							{
								OFFSET 0.249234 0.008986 -0.001171
								CHANNELS 3 Zrotation Yrotation Xrotation
								End Site
								{
									OFFSET 0.000000 0.000000 0.000000
								}
							}
						}
					}
				}
				JOINT RightShoulder
				{
					OFFSET -0.081759 0.118833 -0.038615
					CHANNELS 3 Zrotation Yrotation Xrotation
					JOINT RightArm
					{
						OFFSET -0.096012 0.032551 -0.009143
						CHANNELS 3 Zrotation Yrotation Xrotation
						JOINT RightForeArm
						{
							OFFSET -0.253742 -0.013329 -0.021401
							CHANNELS 3 Zrotation Yrotation Xrotation
							JOINT RightHand
							{
								OFFSET -0.255298 0.007772 -0.005559
								CHANNELS 3 Zrotation Yrotation Xrotation
								End Site
								{
									OFFSET 0.000000 0.000000 0.000000
								}
							}
						}
					}
				}
			}
		}
	}
}
MOTION
Frames: 5
Frame Time: 0.050000
0.000000 0.956674 0.000000 2.150713 -8.500676 -14.239986 1.247005 2.256482 21.067033 3.264653 0.072586 -7.263740 2.634761 9.313303 19.273934 0.000000 0.000000 0.000000 -5.624022 -0.371817 21.899945 0.277698 -0.273577 -7.644819 -1.058746 -10.632007 20.510567 0.000000 0.000000 0.000000 2.481410 -1.655093 54.553330 -27.238657 -13.848769 -120.759052 4.468388 -21.353895 98.575795 4.659097 -12.464230 -28.493211 0.000000 0.000000 0.000000 -15.002219 1.477643 3.896179 -11.696081 -9.754026 -6.958164 21.672904 -18.302391 -2.896263 0.000000 0.000000 0.000000 23.095069 -7.581782 -6.507357 15.958174 13.694816 -7.535018 -8.164767 22.594969 -1.508823 0.000000 0.000000 0.000000 
-0.000821 0.955261 0.001572 1.963352 -8.783858 -14.126664 1.368468 2.359209 21.933947 3.513237 0.165274 -8.679955 2.713103 9.406757 19.291407 0.000000 0.000000 0.000000 -4.809269 -0.536764 22.019482 -0.531691 -0.269339 -8.253264 -1.687987 -11.698959 20.917970 0.000000 0.000000 0.000000 2.531721 -1.644106 54.191858 -26.441279 -13.663638 -122.168446 4.012829 -20.246082 100.169894 4.118865 -11.771135 -27.775827 0.000000 0.000000 0.000000 -13.455559 1.429714 3.085862 -12.122847 -9.429945 -7.180126 20.533036 -19.009291 -2.880058 0.000000 0.000000 0.000000 22.998643 -7.494743 -5.774472 16.391751 12.547178 -8.032351 -7.767637 24.512827 -1.644965 0.000000 0.000000 0.000000 
-0.001765 0.954053 0.002443 2.107511 -8.577632 -13.930160 1.779352 2.164230 20.985233 2.571139 0.116066 -7.330298 2.742309 9.359752 18.554589 0.000000 0.000000 0.000000 -4.760754 -0.547585 21.206423 0.160225 -0.268595 -7.596019 -3.931098 -15.003680 21.304208 0.000000 0.000000 0.000000 2.710718 -1.746901 53.618791 -25.299048 -13.072919 -122.782829 4.362729 -18.550318 102.379225 6.514697 -13.499112 -28.846051 0.000000 0.000000 0.000000 -12.511369 1.132086 2.693492 -12.266853 -9.208116 -7.463146 17.996896 -20.833564 -2.974829 0.000000 0.000000 0.000000 25.214889 -8.101774 -5.464299 15.456258 14.241585 -8.320762 -10.373748 23.452351 -1.976139 0.000000 0.000000 0.000000 
-0.003033 0.953990 0.002949 2.505834 -8.510747 -13.754688 1.541471 2.192081 20.877604 2.349621 0.141074 -7.523425 2.674065 9.282813 18.716410 0.000000 0.000000 0.000000 -4.986353 -0.496751 21.484068 0.573404 -0.285685 -7.869652 -4.703890 -15.860124 19.691202 0.000000 0.000000 0.000000 2.530519 -1.639830 53.252803 -26.344573 -13.751858 -123.086798 3.210333 -19.206032 103.830281 6.053525 -13.439535 -29.538632 0.000000 0.000000 0.000000 -11.332665 0.547147 2.263899 -12.624086 -7.933950 -7.455195 16.578199 -21.338803 -2.824354 0.000000 0.000000 0.000000 25.832986 -7.478095 -5.577766 15.299840 14.099508 -8.260125 -10.787198 24.275075 -2.213535 0.000000 0.000000 0.000000 
-0.004441 0.953493 0.002935 2.219030 -9.066732 -13.695155 1.914080 2.124792 20.554256 2.312794 0.098034 -6.829165 3.017731 9.683529 18.506905 0.000000 0.000000 0.000000 -4.534422 -0.547405 20.973238 0.525869 -0.268061 -7.266233 -4.837366 -16.090534 19.535608 0.000000 0.000000 0.000000 2.014806 -1.294119 53.561247 -22.546648 -11.504050 -124.200523 3.234480 -15.805706 104.233963 6.634826 -13.038356 -28.502638 0.000000 0.000000 0.000000 -11.523523 0.109757 2.469244 -12.377898 -7.010780 -7.526089 14.283839 -24.631256 -3.273240 0.000000 0.000000 0.000000 26.361493 -7.128621 -3.840813 14.742122 14.912440 -8.491898 -11.048338 24.787320 -2.331744 0.000000 0.000000 0.000000 
